<svg xmlns="http://www.w3.org/2000/svg" xmlns:xlink="http://www.w3.org/1999/xlink" width='2000' height='2000' viewBox="0 0 2000 2000">
	<rect width="200" height="200" style="fill:rgb(255, 255, 255);stroke-width:1;stroke:rgb(0, 0, 0)" />
	<defs>
		<g id = "2">
			<rect x = "0" y = "0" width="15" height="15" style="fill:rgb(255, 255, 210, 255);stroke-width:0.3;stroke:rgb(0, 255, 0)" />
		</g>
		<g id = "1">
			<rect x = "0" y = "0" width="35" height="220" style="fill:rgb(255, 255, 210, 255);stroke-width:0.3;stroke:rgb(0, 255, 0)" />
		</g>
	</defs>
	<use xlink:href="#2" transform="translate(0, 0) rotate(0, 0, 0) "/>
	<use xlink:href="#2" transform="translate(15, 0) rotate(0, 0, 0) "/>
	<use xlink:href="#2" transform="translate(30, 0) rotate(0, 0, 0) "/>
	<use xlink:href="#2" transform="translate(45, 0) rotate(0, 0, 0) "/>
	<use xlink:href="#2" transform="translate(60, 0) rotate(0, 0, 0) "/>
	<use xlink:href="#2" transform="translate(75, 0) rotate(0, 0, 0) "/>
	<use xlink:href="#2" transform="translate(90, 0) rotate(0, 0, 0) "/>
	<use xlink:href="#2" transform="translate(105, 0) rotate(0, 0, 0) "/>
	<use xlink:href="#2" transform="translate(120, 0) rotate(0, 0, 0) "/>
	<use xlink:href="#2" transform="translate(135, 0) rotate(0, 0, 0) "/>
	<use xlink:href="#2" transform="translate(150, 0) rotate(0, 0, 0) "/>
	<use xlink:href="#2" transform="translate(165, 0) rotate(0, 0, 0) "/>
	<use xlink:href="#2" transform="translate(180, 0) rotate(0, 0, 0) "/>
	<use xlink:href="#2" transform="translate(0, 15) rotate(0, 0, 0) "/>
	<use xlink:href="#2" transform="translate(0, 30) rotate(0, 0, 0) "/>
	<use xlink:href="#2" transform="translate(0, 45) rotate(0, 0, 0) "/>
	<use xlink:href="#2" transform="translate(0, 60) rotate(0, 0, 0) "/>
	<use xlink:href="#2" transform="translate(0, 75) rotate(0, 0, 0) "/>
	<use xlink:href="#2" transform="translate(0, 90) rotate(0, 0, 0) "/>
	<use xlink:href="#2" transform="translate(0, 105) rotate(0, 0, 0) "/>
	<use xlink:href="#2" transform="translate(0, 120) rotate(0, 0, 0) "/>
	<use xlink:href="#2" transform="translate(0, 135) rotate(0, 0, 0) "/>
	<use xlink:href="#2" transform="translate(0, 150) rotate(0, 0, 0) "/>
	<use xlink:href="#2" transform="translate(0, 165) rotate(0, 0, 0) "/>
	<use xlink:href="#2" transform="translate(0, 180) rotate(0, 0, 0) "/>
	<use xlink:href="#1" transform="translate(199.928, 164.832) rotate(132.926, 0, 0) "/>
	<text x = "2" y = "210" fill = "red" style="font-size: 4pt;">13325from 40000</text>
</svg>
